<svg width="834" height="834" viewBox="0 0 834 834" fill="none" xmlns="http://www.w3.org/2000/svg">
<path fill-rule="evenodd" clip-rule="evenodd" d="M820.984 418.582H664.326C663.728 336.64 628.426 263.573 573.426 215.499C577.719 215.344 604.048 218.733 711.073 298.98C802.301 367.383 818.14 402.293 820.54 414.943C820.763 416.118 820.915 417.343 820.984 418.582ZM820.54 422.222C820.763 421.047 820.916 419.822 820.984 418.582H664.326C663.728 500.525 628.426 573.592 573.426 621.665C577.721 621.82 604.051 618.43 711.073 538.185C802.301 469.782 818.14 434.872 820.54 422.222Z" fill="#2F3B1C"/>
<path fill-rule="evenodd" clip-rule="evenodd" d="M664.326 418.582C663.728 336.64 628.426 263.573 573.426 215.499C577.719 215.344 604.048 218.733 711.073 298.98C802.301 367.383 818.14 402.293 820.54 414.943C820.763 416.118 820.916 417.343 820.984 418.582C820.984 418.582 820.984 418.582 820.984 418.582" fill="#2F3B1C"/>
<path fill-rule="evenodd" clip-rule="evenodd" d="M12.9824 418.583H12.9923C13.0605 417.343 13.213 416.118 13.4359 414.943C15.836 402.293 31.6747 367.383 122.903 298.98C229.92 218.739 256.253 215.345 260.549 215.499C205.55 263.573 170.247 336.64 169.65 418.583H169.64C170.238 500.525 205.54 573.592 260.54 621.665C256.245 621.82 229.914 618.43 122.893 538.185C31.6648 469.782 15.8261 434.872 13.4259 422.222C13.203 421.047 13.0506 419.822 12.9824 418.583Z" fill="#2F3B1C"/>
</svg>
