<svg width="818" height="818" viewBox="0 0 818 818" fill="none" xmlns="http://www.w3.org/2000/svg">
<rect width="818" height="818" rx="64" fill="#EBEFE3"/>
<rect x="345" y="352" width="120" height="100" rx="43" fill="#2F3B1C"/>
<path d="M390.187 188.982C405.77 186.629 414.049 186.517 422.053 186.159C429.299 185.835 445.601 186.098 448.623 186.15C448.949 186.156 449.257 186.159 449.583 186.161C504.701 186.556 621.825 255.77 596.451 277.852C590.599 282.945 581.766 281.857 574.026 281.33C553.104 279.904 501.297 279.722 396.518 296.257C250.426 319.312 260.653 322.136 242.635 348.955C224.617 375.773 182.25 365.893 156.441 353.517C134.295 342.898 71.2659 350.503 53.8183 352.875C50.775 353.289 47.7225 353.534 44.6666 353.228C-11.4754 347.599 -16.8331 267.59 40.8169 256.603C40.9545 256.576 40.9364 256.581 41.0739 256.554C45.5075 255.687 374.709 191.318 390.187 188.982Z" fill="#2F3B1C"/>
<path d="M417.408 629.77C401.409 632.319 392.91 632.44 384.692 632.828C377.262 633.178 360.561 632.895 357.426 632.837C357.082 632.831 356.759 632.828 356.415 632.826C299.931 632.387 180.06 557.704 205.494 533.633C211.432 528.014 220.822 529.175 228.977 529.748C250.656 531.272 303.85 531.382 410.909 513.555C560.896 488.579 550.397 485.52 568.895 456.466C587.393 427.412 630.89 438.116 657.387 451.523C680.071 463 744.535 454.827 762.622 452.236C765.828 451.777 769.048 451.503 772.268 451.85C829.788 458.06 835.239 544.615 776.099 556.513C775.955 556.542 775.973 556.537 775.829 556.567C771.18 557.526 433.297 627.239 417.408 629.77Z" fill="#2F3B1C"/>
</svg>
