<svg width="834" height="834" viewBox="0 0 834 834" fill="none" xmlns="http://www.w3.org/2000/svg">
<path fill-rule="evenodd" clip-rule="evenodd" d="M615.011 417C615.011 533.532 526.349 628 416.979 628C307.609 628 218.947 533.532 218.947 417C218.947 300.468 307.609 206 416.979 206C451.304 206 483.589 215.305 511.733 231.676C496.687 239.298 486.286 255.642 486.286 274.575C486.286 300.795 506.235 322.05 530.844 322.05C551.113 322.05 568.221 307.63 573.624 287.893C599.569 323.577 615.011 368.367 615.011 417ZM486.284 413.835C499.955 413.835 511.038 402.026 511.038 387.46C511.038 372.893 499.955 361.085 486.284 361.085C472.613 361.085 461.53 372.893 461.53 387.46C461.53 402.026 472.613 413.835 486.284 413.835Z" fill="#161616"/>
</svg>
