<svg xmlns="http://www.w3.org/2000/svg" xml:space="preserve"
     style="max-width: 100%;height: auto;" width="984" height="984" viewBox="0 0 984 984">
<rect width="984" height="984" fill="#ffffff" x="0" y="0"></rect>
    <g fill="#2f3b1c">
<g transform="translate(240,48) scale(4.12)"><path d="M6,6H0V3c0-1.7,1.3-3,3-3h0c1.7,0,3,1.3,3,3V6z"></path></g>
        <g transform="translate(288,48) scale(4.12)"><path d="M6,6H3C1.3,6,0,4.7,0,3v0c0-1.7,1.3-3,3-3h3C6,0,6,6,6,6z"></path></g>
        <g transform="translate(312,48) scale(4.12)"><path d="M3,6H0V0l3,0c1.7,0,3,1.3,3,3v0C6,4.7,4.7,6,3,6z"></path></g>
        <g transform="translate(384,48) scale(4.12)"><path d="M6,6H0V3c0-1.7,1.3-3,3-3h0c1.7,0,3,1.3,3,3V6z"></path></g>
        <g transform="translate(432,48) scale(4.12)"><circle cx="3" cy="3" r="3"></circle></g>
        <g transform="translate(480,48) scale(4.12)"><path d="M6,6H3C1.3,6,0,4.7,0,3v0c0-1.7,1.3-3,3-3h3C6,0,6,6,6,6z"></path></g>
        <g transform="translate(504,48) scale(4.12)"><rect width="6" height="6"></rect></g>
        <g transform="translate(528,48) scale(4.12)"><path d="M6,6H0V0l3,0c1.7,0,3,1.3,3,3V6z"></path></g>
        <g transform="translate(624,48) scale(4.12)"><circle cx="3" cy="3" r="3"></circle></g>
        <g transform="translate(720,48) scale(4.12)"><path d="M6,6H0V3c0-1.7,1.3-3,3-3h0c1.7,0,3,1.3,3,3V6z"></path></g>
        <g transform="translate(240,72) scale(4.12)"><rect width="6" height="6"></rect></g>
        <g transform="translate(264,72) scale(4.12)"><path d="M6,6H0V0l3,0c1.7,0,3,1.3,3,3V6z"></path></g>
        <g transform="translate(336,72) scale(4.12)"><path d="M6,6H0V3c0-1.7,1.3-3,3-3l3,0V6z"></path></g>
        <g transform="translate(360,72) scale(4.12)"><rect width="6" height="6"></rect></g>
        <g transform="translate(384,72) scale(4.12)"><path d="M3,6H0V0l6,0v3C6,4.7,4.7,6,3,6z"></path></g>
        <g transform="translate(528,72) scale(4.12)"><rect width="6" height="6"></rect></g>
        <g transform="translate(552,72) scale(4.12)"><path d="M3,6H0V0l3,0c1.7,0,3,1.3,3,3v0C6,4.7,4.7,6,3,6z"></path></g>
        <g transform="translate(696,72) scale(4.12)"><path d="M6,6H3C1.3,6,0,4.7,0,3v0c0-1.7,1.3-3,3-3h3C6,0,6,6,6,6z"></path></g>
        <g transform="translate(720,72) scale(4.12)"><rect width="6" height="6"></rect></g>
        <g transform="translate(240,96) scale(4.12)"><path d="M6,6H3C1.3,6,0,4.7,0,3V0l6,0V6z"></path></g>
        <g transform="translate(264,96) scale(4.12)"><rect width="6" height="6"></rect></g>
        <g transform="translate(312,96) scale(4.12)"><path d="M6,6H3C1.3,6,0,4.7,0,3v0c0-1.7,1.3-3,3-3h3C6,0,6,6,6,6z"></path></g>
        <g transform="translate(336,96) scale(4.12)"><path d="M3,6H0V0l6,0v3C6,4.7,4.7,6,3,6z"></path></g>
        <g transform="translate(456,96) scale(4.12)"><path d="M6,6H0V3c0-1.7,1.3-3,3-3h0c1.7,0,3,1.3,3,3V6z"></path></g>
        <g transform="translate(504,96) scale(4.12)"><path d="M6,6H3C1.3,6,0,4.7,0,3v0c0-1.7,1.3-3,3-3h3C6,0,6,6,6,6z"></path></g>
        <g transform="translate(528,96) scale(4.12)"><rect width="6" height="6"></rect></g>
        <g transform="translate(576,96) scale(4.12)"><path d="M6,6H0V3c0-1.7,1.3-3,3-3l3,0V6z"></path></g>
        <g transform="translate(600,96) scale(4.12)"><rect width="6" height="6"></rect></g>
        <g transform="translate(624,96) scale(4.12)"><path d="M3,6H0V0l3,0c1.7,0,3,1.3,3,3v0C6,4.7,4.7,6,3,6z"></path></g>
        <g transform="translate(672,96) scale(4.12)"><path d="M6,6H0V3c0-1.7,1.3-3,3-3h0c1.7,0,3,1.3,3,3V6z"></path></g>
        <g transform="translate(720,96) scale(4.12)"><path d="M3,6L3,6C1.3,6,0,4.7,0,3V0h6v3C6,4.7,4.7,6,3,6z"></path></g>
        <g transform="translate(264,120) scale(4.12)"><path d="M6,6H3C1.3,6,0,4.7,0,3V0l6,0V6z"></path></g>
        <g transform="translate(288,120) scale(4.12)"><path d="M3,6H0V0l3,0c1.7,0,3,1.3,3,3v0C6,4.7,4.7,6,3,6z"></path></g>
        <g transform="translate(360,120) scale(4.12)"><path d="M6,6H0V3c0-1.7,1.3-3,3-3l3,0V6z"></path></g>
        <g transform="translate(384,120) scale(4.12)"><rect width="6" height="6"></rect></g>
        <g transform="translate(408,120) scale(4.12)"><path d="M6,6H0V0l3,0c1.7,0,3,1.3,3,3V6z"></path></g>
        <g transform="translate(456,120) scale(4.12)"><rect width="6" height="6"></rect></g>
        <g transform="translate(528,120) scale(4.12)"><path d="M3,6L3,6C1.3,6,0,4.7,0,3V0h6v3C6,4.7,4.7,6,3,6z"></path></g>
        <g transform="translate(576,120) scale(4.12)"><path d="M6,6H3C1.3,6,0,4.7,0,3V0l6,0V6z"></path></g>
        <g transform="translate(600,120) scale(4.12)"><path d="M3,6H0V0l6,0v3C6,4.7,4.7,6,3,6z"></path></g>
        <g transform="translate(648,120) scale(4.12)"><path d="M6,6H3C1.3,6,0,4.7,0,3v0c0-1.7,1.3-3,3-3h3C6,0,6,6,6,6z"></path></g>
        <g transform="translate(672,120) scale(4.12)"><rect width="6" height="6"></rect></g>
        <g transform="translate(336,144) scale(4.12)"><path d="M6,6H3C1.3,6,0,4.7,0,3v0c0-1.7,1.3-3,3-3h3C6,0,6,6,6,6z"></path></g>
        <g transform="translate(360,144) scale(4.12)"><rect width="6" height="6"></rect></g>
        <g transform="translate(384,144) scale(4.12)"><rect width="6" height="6"></rect></g>
        <g transform="translate(408,144) scale(4.12)"><rect width="6" height="6"></rect></g>
        <g transform="translate(432,144) scale(4.12)"><rect width="6" height="6"></rect></g>
        <g transform="translate(456,144) scale(4.12)"><rect width="6" height="6"></rect></g>
        <g transform="translate(480,144) scale(4.12)"><rect width="6" height="6"></rect></g>
        <g transform="translate(504,144) scale(4.12)"><path d="M6,6H0V0l3,0c1.7,0,3,1.3,3,3V6z"></path></g>
        <g transform="translate(552,144) scale(4.12)"><path d="M6,6H0V3c0-1.7,1.3-3,3-3h0c1.7,0,3,1.3,3,3V6z"></path></g>
        <g transform="translate(624,144) scale(4.12)"><circle cx="3" cy="3" r="3"></circle></g>
        <g transform="translate(672,144) scale(4.12)"><path d="M3,6L3,6C1.3,6,0,4.7,0,3V0h6v3C6,4.7,4.7,6,3,6z"></path></g>
        <g transform="translate(240,168) scale(4.12)"><path d="M6,6H0V3c0-1.7,1.3-3,3-3l3,0V6z"></path></g>
        <g transform="translate(264,168) scale(4.12)"><rect width="6" height="6"></rect></g>
        <g transform="translate(288,168) scale(4.12)"><rect width="6" height="6"></rect></g>
        <g transform="translate(312,168) scale(4.12)"><path d="M3,6H0V0l3,0c1.7,0,3,1.3,3,3v0C6,4.7,4.7,6,3,6z"></path></g>
        <g transform="translate(384,168) scale(4.12)"><rect width="6" height="6"></rect></g>
        <g transform="translate(408,168) scale(4.12)"><path d="M3,6H0V0l6,0v3C6,4.7,4.7,6,3,6z"></path></g>
        <g transform="translate(456,168) scale(4.12)"><path d="M3,6L3,6C1.3,6,0,4.7,0,3V0h6v3C6,4.7,4.7,6,3,6z"></path></g>
        <g transform="translate(504,168) scale(4.12)"><path d="M3,6L3,6C1.3,6,0,4.7,0,3V0h6v3C6,4.7,4.7,6,3,6z"></path></g>
        <g transform="translate(552,168) scale(4.12)"><path d="M3,6L3,6C1.3,6,0,4.7,0,3V0h6v3C6,4.7,4.7,6,3,6z"></path></g>
        <g transform="translate(600,168) scale(4.12)"><circle cx="3" cy="3" r="3"></circle></g>
        <g transform="translate(696,168) scale(4.12)"><path d="M6,6H3C1.3,6,0,4.7,0,3v0c0-1.7,1.3-3,3-3h3C6,0,6,6,6,6z"></path></g>
        <g transform="translate(720,168) scale(4.12)"><path d="M6,6H0V0l3,0c1.7,0,3,1.3,3,3V6z"></path></g>
        <g transform="translate(240,192) scale(4.12)"><rect width="6" height="6"></rect></g>
        <g transform="translate(288,192) scale(4.12)"><path d="M3,6L3,6C1.3,6,0,4.7,0,3V0h6v3C6,4.7,4.7,6,3,6z"></path></g>
        <g transform="translate(336,192) scale(4.12)"><circle cx="3" cy="3" r="3"></circle></g>
        <g transform="translate(384,192) scale(4.12)"><rect width="6" height="6"></rect></g>
        <g transform="translate(432,192) scale(4.12)"><path d="M6,6H0V3c0-1.7,1.3-3,3-3h0c1.7,0,3,1.3,3,3V6z"></path></g>
        <g transform="translate(480,192) scale(4.12)"><path d="M6,6H0V3c0-1.7,1.3-3,3-3h0c1.7,0,3,1.3,3,3V6z"></path></g>
        <g transform="translate(528,192) scale(4.12)"><path d="M6,6H0V3c0-1.7,1.3-3,3-3h0c1.7,0,3,1.3,3,3V6z"></path></g>
        <g transform="translate(576,192) scale(4.12)"><circle cx="3" cy="3" r="3"></circle></g>
        <g transform="translate(624,192) scale(4.12)"><circle cx="3" cy="3" r="3"></circle></g>
        <g transform="translate(672,192) scale(4.12)"><path d="M6,6H0V3c0-1.7,1.3-3,3-3h0c1.7,0,3,1.3,3,3V6z"></path></g>
        <g transform="translate(720,192) scale(4.12)"><rect width="6" height="6"></rect></g>
        <g transform="translate(240,216) scale(4.12)"><rect width="6" height="6"></rect></g>
        <g transform="translate(360,216) scale(4.12)"><path d="M6,6H0V3c0-1.7,1.3-3,3-3l3,0V6z"></path></g>
        <g transform="translate(384,216) scale(4.12)"><path d="M3,6H0V0l6,0v3C6,4.7,4.7,6,3,6z"></path></g>
        <g transform="translate(432,216) scale(4.12)"><path d="M6,6H3C1.3,6,0,4.7,0,3V0l6,0V6z"></path></g>
        <g transform="translate(456,216) scale(4.12)"><rect width="6" height="6"></rect></g>
        <g transform="translate(480,216) scale(4.12)"><rect width="6" height="6"></rect></g>
        <g transform="translate(504,216) scale(4.12)"><rect width="6" height="6"></rect></g>
        <g transform="translate(528,216) scale(4.12)"><rect width="6" height="6"></rect></g>
        <g transform="translate(552,216) scale(4.12)"><path d="M6,6H0V0l3,0c1.7,0,3,1.3,3,3V6z"></path></g>
        <g transform="translate(672,216) scale(4.12)"><path d="M3,6L3,6C1.3,6,0,4.7,0,3V0h6v3C6,4.7,4.7,6,3,6z"></path></g>
        <g transform="translate(720,216) scale(4.12)"><path d="M3,6L3,6C1.3,6,0,4.7,0,3V0h6v3C6,4.7,4.7,6,3,6z"></path></g>
        <g transform="translate(96,240) scale(4.12)"><path d="M6,6H3C1.3,6,0,4.7,0,3v0c0-1.7,1.3-3,3-3h3C6,0,6,6,6,6z"></path></g>
        <g transform="translate(120,240) scale(4.12)"><rect width="6" height="6"></rect></g>
        <g transform="translate(144,240) scale(4.12)"><path d="M6,6H0V0l3,0c1.7,0,3,1.3,3,3V6z"></path></g>
        <g transform="translate(192,240) scale(4.12)"><circle cx="3" cy="3" r="3"></circle></g>
        <g transform="translate(240,240) scale(4.12)"><rect width="6" height="6"></rect></g>
        <g transform="translate(312,240) scale(4.12)"><circle cx="3" cy="3" r="3"></circle></g>
        <g transform="translate(360,240) scale(4.12)"><rect width="6" height="6"></rect></g>
        <g transform="translate(408,240) scale(4.12)"><path d="M6,6H0V3c0-1.7,1.3-3,3-3h0c1.7,0,3,1.3,3,3V6z"></path></g>
        <g transform="translate(456,240) scale(4.12)"><path d="M6,6H3C1.3,6,0,4.7,0,3V0l6,0V6z"></path></g>
        <g transform="translate(480,240) scale(4.12)"><path d="M3,6H0V0l6,0v3C6,4.7,4.7,6,3,6z"></path></g>
        <g transform="translate(528,240) scale(4.12)"><rect width="6" height="6"></rect></g>
        <g transform="translate(552,240) scale(4.12)"><rect width="6" height="6"></rect></g>
        <g transform="translate(576,240) scale(4.12)"><path d="M6,6H0V0l3,0c1.7,0,3,1.3,3,3V6z"></path></g>
        <g transform="translate(624,240) scale(4.12)"><circle cx="3" cy="3" r="3"></circle></g>
        <g transform="translate(744,240) scale(4.12)"><path d="M6,6H3C1.3,6,0,4.7,0,3v0c0-1.7,1.3-3,3-3h3C6,0,6,6,6,6z"></path></g>
        <g transform="translate(768,240) scale(4.12)"><rect width="6" height="6"></rect></g>
        <g transform="translate(792,240) scale(4.12)"><path d="M6,6H0V0l3,0c1.7,0,3,1.3,3,3V6z"></path></g>
        <g transform="translate(864,240) scale(4.12)"><path d="M6,6H0V3c0-1.7,1.3-3,3-3l3,0V6z"></path></g>
        <g transform="translate(888,240) scale(4.12)"><rect width="6" height="6"></rect></g>
        <g transform="translate(912,240) scale(4.12)"><path d="M3,6H0V0l3,0c1.7,0,3,1.3,3,3v0C6,4.7,4.7,6,3,6z"></path></g>
        <g transform="translate(48,264) scale(4.12)"><path d="M6,6H3C1.3,6,0,4.7,0,3v0c0-1.7,1.3-3,3-3h3C6,0,6,6,6,6z"></path></g>
        <g transform="translate(72,264) scale(4.12)"><path d="M6,6H0V0l3,0c1.7,0,3,1.3,3,3V6z"></path></g>
        <g transform="translate(120,264) scale(4.12)"><rect width="6" height="6"></rect></g>
        <g transform="translate(144,264) scale(4.12)"><path d="M3,6H0V0l6,0v3C6,4.7,4.7,6,3,6z"></path></g>
        <g transform="translate(216,264) scale(4.12)"><path d="M6,6H0V3c0-1.7,1.3-3,3-3l3,0V6z"></path></g>
        <g transform="translate(240,264) scale(4.12)"><rect width="6" height="6"></rect></g>
        <g transform="translate(264,264) scale(4.12)"><rect width="6" height="6"></rect></g>
        <g transform="translate(288,264) scale(4.12)"><path d="M3,6H0V0l3,0c1.7,0,3,1.3,3,3v0C6,4.7,4.7,6,3,6z"></path></g>
        <g transform="translate(360,264) scale(4.12)"><path d="M6,6H3C1.3,6,0,4.7,0,3V0l6,0V6z"></path></g>
        <g transform="translate(384,264) scale(4.12)"><rect width="6" height="6"></rect></g>
        <g transform="translate(408,264) scale(4.12)"><rect width="6" height="6"></rect></g>
        <g transform="translate(432,264) scale(4.12)"><path d="M6,6H0V0l3,0c1.7,0,3,1.3,3,3V6z"></path></g>
        <g transform="translate(504,264) scale(4.12)"><path d="M6,6H3C1.3,6,0,4.7,0,3v0c0-1.7,1.3-3,3-3h3C6,0,6,6,6,6z"></path></g>
        <g transform="translate(528,264) scale(4.12)"><rect width="6" height="6"></rect></g>
        <g transform="translate(576,264) scale(4.12)"><path d="M3,6L3,6C1.3,6,0,4.7,0,3V0h6v3C6,4.7,4.7,6,3,6z"></path></g>
        <g transform="translate(648,264) scale(4.12)"><path d="M6,6H0V3c0-1.7,1.3-3,3-3l3,0V6z"></path></g>
        <g transform="translate(672,264) scale(4.12)"><rect width="6" height="6"></rect></g>
        <g transform="translate(696,264) scale(4.12)"><rect width="6" height="6"></rect></g>
        <g transform="translate(720,264) scale(4.12)"><path d="M3,6H0V0l3,0c1.7,0,3,1.3,3,3v0C6,4.7,4.7,6,3,6z"></path></g>
        <g transform="translate(792,264) scale(4.12)"><path d="M3,6L3,6C1.3,6,0,4.7,0,3V0h6v3C6,4.7,4.7,6,3,6z"></path></g>
        <g transform="translate(864,264) scale(4.12)"><rect width="6" height="6"></rect></g>
        <g transform="translate(72,288) scale(4.12)"><path d="M3,6L3,6C1.3,6,0,4.7,0,3V0h6v3C6,4.7,4.7,6,3,6z"></path></g>
        <g transform="translate(120,288) scale(4.12)"><path d="M3,6L3,6C1.3,6,0,4.7,0,3V0h6v3C6,4.7,4.7,6,3,6z"></path></g>
        <g transform="translate(192,288) scale(4.12)"><path d="M6,6H3C1.3,6,0,4.7,0,3v0c0-1.7,1.3-3,3-3h3C6,0,6,6,6,6z"></path></g>
        <g transform="translate(216,288) scale(4.12)"><path d="M3,6H0V0l6,0v3C6,4.7,4.7,6,3,6z"></path></g>
        <g transform="translate(264,288) scale(4.12)"><path d="M3,6L3,6C1.3,6,0,4.7,0,3V0h6v3C6,4.7,4.7,6,3,6z"></path></g>
        <g transform="translate(312,288) scale(4.12)"><circle cx="3" cy="3" r="3"></circle></g>
        <g transform="translate(384,288) scale(4.12)"><path d="M6,6H3C1.3,6,0,4.7,0,3V0l6,0V6z"></path></g>
        <g transform="translate(408,288) scale(4.12)"><rect width="6" height="6"></rect></g>
        <g transform="translate(432,288) scale(4.12)"><path d="M3,6H0V0l6,0v3C6,4.7,4.7,6,3,6z"></path></g>
        <g transform="translate(480,288) scale(4.12)"><circle cx="3" cy="3" r="3"></circle></g>
        <g transform="translate(528,288) scale(4.12)"><rect width="6" height="6"></rect></g>
        <g transform="translate(552,288) scale(4.12)"><path d="M3,6H0V0l3,0c1.7,0,3,1.3,3,3v0C6,4.7,4.7,6,3,6z"></path></g>
        <g transform="translate(648,288) scale(4.12)"><path d="M6,6H3C1.3,6,0,4.7,0,3V0l6,0V6z"></path></g>
        <g transform="translate(672,288) scale(4.12)"><rect width="6" height="6"></rect></g>
        <g transform="translate(768,288) scale(4.12)"><path d="M6,6H0V3c0-1.7,1.3-3,3-3h0c1.7,0,3,1.3,3,3V6z"></path></g>
        <g transform="translate(816,288) scale(4.12)"><circle cx="3" cy="3" r="3"></circle></g>
        <g transform="translate(864,288) scale(4.12)"><path d="M6,6H3C1.3,6,0,4.7,0,3V0l6,0V6z"></path></g>
        <g transform="translate(888,288) scale(4.12)"><rect width="6" height="6"></rect></g>
        <g transform="translate(912,288) scale(4.12)"><path d="M6,6H0V0l3,0c1.7,0,3,1.3,3,3V6z"></path></g>
        <g transform="translate(96,312) scale(4.12)"><path d="M6,6H0V3c0-1.7,1.3-3,3-3h0c1.7,0,3,1.3,3,3V6z"></path></g>
        <g transform="translate(144,312) scale(4.12)"><path d="M6,6H0V3c0-1.7,1.3-3,3-3l3,0V6z"></path></g>
        <g transform="translate(168,312) scale(4.12)"><path d="M3,6H0V0l3,0c1.7,0,3,1.3,3,3v0C6,4.7,4.7,6,3,6z"></path></g>
        <g transform="translate(336,312) scale(4.12)"><path d="M6,6H3C1.3,6,0,4.7,0,3v0c0-1.7,1.3-3,3-3h3C6,0,6,6,6,6z"></path></g>
        <g transform="translate(360,312) scale(4.12)"><path d="M6,6H0V0l3,0c1.7,0,3,1.3,3,3V6z"></path></g>
        <g transform="translate(456,312) scale(4.12)"><circle cx="3" cy="3" r="3"></circle></g>
        <g transform="translate(528,312) scale(4.12)"><path d="M3,6L3,6C1.3,6,0,4.7,0,3V0h6v3C6,4.7,4.7,6,3,6z"></path></g>
        <g transform="translate(576,312) scale(4.12)"><path d="M6,6H0V3c0-1.7,1.3-3,3-3l3,0V6z"></path></g>
        <g transform="translate(600,312) scale(4.12)"><path d="M3,6H0V0l3,0c1.7,0,3,1.3,3,3v0C6,4.7,4.7,6,3,6z"></path></g>
        <g transform="translate(672,312) scale(4.12)"><rect width="6" height="6"></rect></g>
        <g transform="translate(720,312) scale(4.12)"><circle cx="3" cy="3" r="3"></circle></g>
        <g transform="translate(768,312) scale(4.12)"><rect width="6" height="6"></rect></g>
        <g transform="translate(888,312) scale(4.12)"><rect width="6" height="6"></rect></g>
        <g transform="translate(912,312) scale(4.12)"><path d="M3,6H0V0l6,0v3C6,4.7,4.7,6,3,6z"></path></g>
        <g transform="translate(96,336) scale(4.12)"><path d="M6,6H3C1.3,6,0,4.7,0,3V0l6,0V6z"></path></g>
        <g transform="translate(120,336) scale(4.12)"><rect width="6" height="6"></rect></g>
        <g transform="translate(144,336) scale(4.12)"><path d="M3,6H0V0l6,0v3C6,4.7,4.7,6,3,6z"></path></g>
        <g transform="translate(192,336) scale(4.12)"><path d="M6,6H3C1.3,6,0,4.7,0,3v0c0-1.7,1.3-3,3-3h3C6,0,6,6,6,6z"></path></g>
        <g transform="translate(216,336) scale(4.12)"><path d="M6,6H0V0l3,0c1.7,0,3,1.3,3,3V6z"></path></g>
        <g transform="translate(360,336) scale(4.12)"><rect width="6" height="6"></rect></g>
        <g transform="translate(480,336) scale(4.12)"><path d="M6,6H3C1.3,6,0,4.7,0,3v0c0-1.7,1.3-3,3-3h3C6,0,6,6,6,6z"></path></g>
        <g transform="translate(504,336) scale(4.12)"><path d="M6,6H0V0l3,0c1.7,0,3,1.3,3,3V6z"></path></g>
        <g transform="translate(552,336) scale(4.12)"><path d="M6,6H0V3c0-1.7,1.3-3,3-3l3,0V6z"></path></g>
        <g transform="translate(576,336) scale(4.12)"><rect width="6" height="6"></rect></g>
        <g transform="translate(624,336) scale(4.12)"><path d="M6,6H3C1.3,6,0,4.7,0,3v0c0-1.7,1.3-3,3-3h3C6,0,6,6,6,6z"></path></g>
        <g transform="translate(648,336) scale(4.12)"><rect width="6" height="6"></rect></g>
        <g transform="translate(672,336) scale(4.12)"><path d="M3,6H0V0l6,0v3C6,4.7,4.7,6,3,6z"></path></g>
        <g transform="translate(744,336) scale(4.12)"><path d="M6,6H0V3c0-1.7,1.3-3,3-3l3,0V6z"></path></g>
        <g transform="translate(768,336) scale(4.12)"><rect width="6" height="6"></rect></g>
        <g transform="translate(792,336) scale(4.12)"><rect width="6" height="6"></rect></g>
        <g transform="translate(816,336) scale(4.12)"><rect width="6" height="6"></rect></g>
        <g transform="translate(840,336) scale(4.12)"><rect width="6" height="6"></rect></g>
        <g transform="translate(864,336) scale(4.12)"><rect width="6" height="6"></rect></g>
        <g transform="translate(888,336) scale(4.12)"><rect width="6" height="6"></rect></g>
        <g transform="translate(72,360) scale(4.12)"><path d="M6,6H0V3c0-1.7,1.3-3,3-3h0c1.7,0,3,1.3,3,3V6z"></path></g>
        <g transform="translate(168,360) scale(4.12)"><circle cx="3" cy="3" r="3"></circle></g>
        <g transform="translate(216,360) scale(4.12)"><rect width="6" height="6"></rect></g>
        <g transform="translate(240,360) scale(4.12)"><path d="M6,6H0V0l3,0c1.7,0,3,1.3,3,3V6z"></path></g>
        <g transform="translate(312,360) scale(4.12)"><path d="M6,6H0V3c0-1.7,1.3-3,3-3l3,0V6z"></path></g>
        <g transform="translate(336,360) scale(4.12)"><rect width="6" height="6"></rect></g>
        <g transform="translate(360,360) scale(4.12)"><rect width="6" height="6"></rect></g>
        <g transform="translate(384,360) scale(4.12)"><rect width="6" height="6"></rect></g>
        <g transform="translate(408,360) scale(4.12)"><path d="M6,6H0V0l3,0c1.7,0,3,1.3,3,3V6z"></path></g>
        <g transform="translate(504,360) scale(4.12)"><path d="M3,6L3,6C1.3,6,0,4.7,0,3V0h6v3C6,4.7,4.7,6,3,6z"></path></g>
        <g transform="translate(552,360) scale(4.12)"><rect width="6" height="6"></rect></g>
        <g transform="translate(576,360) scale(4.12)"><path d="M3,6H0V0l6,0v3C6,4.7,4.7,6,3,6z"></path></g>
        <g transform="translate(720,360) scale(4.12)"><path d="M6,6H3C1.3,6,0,4.7,0,3v0c0-1.7,1.3-3,3-3h3C6,0,6,6,6,6z"></path></g>
        <g transform="translate(744,360) scale(4.12)"><rect width="6" height="6"></rect></g>
        <g transform="translate(792,360) scale(4.12)"><rect width="6" height="6"></rect></g>
        <g transform="translate(840,360) scale(4.12)"><rect width="6" height="6"></rect></g>
        <g transform="translate(864,360) scale(4.12)"><rect width="6" height="6"></rect></g>
        <g transform="translate(888,360) scale(4.12)"><rect width="6" height="6"></rect></g>
        <g transform="translate(48,384) scale(4.12)"><path d="M6,6H3C1.3,6,0,4.7,0,3v0c0-1.7,1.3-3,3-3h3C6,0,6,6,6,6z"></path></g>
        <g transform="translate(72,384) scale(4.12)"><rect width="6" height="6"></rect></g>
        <g transform="translate(96,384) scale(4.12)"><path d="M3,6H0V0l3,0c1.7,0,3,1.3,3,3v0C6,4.7,4.7,6,3,6z"></path></g>
        <g transform="translate(192,384) scale(4.12)"><path d="M6,6H3C1.3,6,0,4.7,0,3v0c0-1.7,1.3-3,3-3h3C6,0,6,6,6,6z"></path></g>
        <g transform="translate(216,384) scale(4.12)"><rect width="6" height="6"></rect></g>
        <g transform="translate(240,384) scale(4.12)"><rect width="6" height="6"></rect></g>
        <g transform="translate(288,384) scale(4.12)"><path d="M6,6H0V3c0-1.7,1.3-3,3-3l3,0V6z"></path></g>
        <g transform="translate(312,384) scale(4.12)"><rect width="6" height="6"></rect></g>
        <g transform="translate(336,384) scale(4.12)"><path d="M3,6H0V0l6,0v3C6,4.7,4.7,6,3,6z"></path></g>
        <g transform="translate(384,384) scale(4.12)"><rect width="6" height="6"></rect></g>
        <g transform="translate(408,384) scale(4.12)"><rect width="6" height="6"></rect></g>
        <g transform="translate(432,384) scale(4.12)"><rect width="6" height="6"></rect></g>
        <g transform="translate(456,384) scale(4.12)"><rect width="6" height="6"></rect></g>
        <g transform="translate(480,384) scale(4.12)"><path d="M3,6H0V0l3,0c1.7,0,3,1.3,3,3v0C6,4.7,4.7,6,3,6z"></path></g>
        <g transform="translate(552,384) scale(4.12)"><rect width="6" height="6"></rect></g>
        <g transform="translate(648,384) scale(4.12)"><path d="M6,6H3C1.3,6,0,4.7,0,3v0c0-1.7,1.3-3,3-3h3C6,0,6,6,6,6z"></path></g>
        <g transform="translate(672,384) scale(4.12)"><rect width="6" height="6"></rect></g>
        <g transform="translate(696,384) scale(4.12)"><path d="M6,6H0V0l3,0c1.7,0,3,1.3,3,3V6z"></path></g>
        <g transform="translate(744,384) scale(4.12)"><rect width="6" height="6"></rect></g>
        <g transform="translate(792,384) scale(4.12)"><rect width="6" height="6"></rect></g>
        <g transform="translate(840,384) scale(4.12)"><path d="M3,6L3,6C1.3,6,0,4.7,0,3V0h6v3C6,4.7,4.7,6,3,6z"></path></g>
        <g transform="translate(888,384) scale(4.12)"><path d="M6,6H3C1.3,6,0,4.7,0,3V0l6,0V6z"></path></g>
        <g transform="translate(912,384) scale(4.12)"><path d="M6,6H0V0l3,0c1.7,0,3,1.3,3,3V6z"></path></g>
        <g transform="translate(72,408) scale(4.12)"><rect width="6" height="6"></rect></g>
        <g transform="translate(168,408) scale(4.12)"><path d="M6,6H0V3c0-1.7,1.3-3,3-3h0c1.7,0,3,1.3,3,3V6z"></path></g>
        <g transform="translate(216,408) scale(4.12)"><rect width="6" height="6"></rect></g>
        <g transform="translate(240,408) scale(4.12)"><rect width="6" height="6"></rect></g>
        <g transform="translate(264,408) scale(4.12)"><rect width="6" height="6"></rect></g>
        <g transform="translate(288,408) scale(4.12)"><rect width="6" height="6"></rect></g>
        <g transform="translate(384,408) scale(4.12)"><path d="M3,6L3,6C1.3,6,0,4.7,0,3V0h6v3C6,4.7,4.7,6,3,6z"></path></g>
        <g transform="translate(432,408) scale(4.12)"><path d="M3,6L3,6C1.3,6,0,4.7,0,3V0h6v3C6,4.7,4.7,6,3,6z"></path></g>
        <g transform="translate(528,408) scale(4.12)"><path d="M6,6H0V3c0-1.7,1.3-3,3-3l3,0V6z"></path></g>
        <g transform="translate(552,408) scale(4.12)"><rect width="6" height="6"></rect></g>
        <g transform="translate(600,408) scale(4.12)"><path d="M6,6H0V3c0-1.7,1.3-3,3-3l3,0V6z"></path></g>
        <g transform="translate(624,408) scale(4.12)"><path d="M3,6H0V0l3,0c1.7,0,3,1.3,3,3v0C6,4.7,4.7,6,3,6z"></path></g>
        <g transform="translate(672,408) scale(4.12)"><rect width="6" height="6"></rect></g>
        <g transform="translate(696,408) scale(4.12)"><rect width="6" height="6"></rect></g>
        <g transform="translate(744,408) scale(4.12)"><rect width="6" height="6"></rect></g>
        <g transform="translate(768,408) scale(4.12)"><rect width="6" height="6"></rect></g>
        <g transform="translate(792,408) scale(4.12)"><path d="M3,6H0V0l6,0v3C6,4.7,4.7,6,3,6z"></path></g>
        <g transform="translate(912,408) scale(4.12)"><path d="M3,6L3,6C1.3,6,0,4.7,0,3V0h6v3C6,4.7,4.7,6,3,6z"></path></g>
        <g transform="translate(72,432) scale(4.12)"><rect width="6" height="6"></rect></g>
        <g transform="translate(120,432) scale(4.12)"><circle cx="3" cy="3" r="3"></circle></g>
        <g transform="translate(168,432) scale(4.12)"><rect width="6" height="6"></rect></g>
        <g transform="translate(192,432) scale(4.12)"><rect width="6" height="6"></rect></g>
        <g transform="translate(216,432) scale(4.12)"><rect width="6" height="6"></rect></g>
        <g transform="translate(240,432) scale(4.12)"><rect width="6" height="6"></rect></g>
        <g transform="translate(264,432) scale(4.12)"><rect width="6" height="6"></rect></g>
        <g transform="translate(288,432) scale(4.12)"><rect width="6" height="6"></rect></g>
        <g transform="translate(336,432) scale(4.12)"><circle cx="3" cy="3" r="3"></circle></g>
        <g transform="translate(456,432) scale(4.12)"><path d="M6,6H0V3c0-1.7,1.3-3,3-3h0c1.7,0,3,1.3,3,3V6z"></path></g>
        <g transform="translate(528,432) scale(4.12)"><path d="M6,6H3C1.3,6,0,4.7,0,3V0l6,0V6z"></path></g>
        <g transform="translate(552,432) scale(4.12)"><rect width="6" height="6"></rect></g>
        <g transform="translate(576,432) scale(4.12)"><rect width="6" height="6"></rect></g>
        <g transform="translate(600,432) scale(4.12)"><path d="M3,6H0V0l6,0v3C6,4.7,4.7,6,3,6z"></path></g>
        <g transform="translate(648,432) scale(4.12)"><path d="M6,6H3C1.3,6,0,4.7,0,3v0c0-1.7,1.3-3,3-3h3C6,0,6,6,6,6z"></path></g>
        <g transform="translate(672,432) scale(4.12)"><rect width="6" height="6"></rect></g>
        <g transform="translate(696,432) scale(4.12)"><path d="M3,6H0V0l6,0v3C6,4.7,4.7,6,3,6z"></path></g>
        <g transform="translate(744,432) scale(4.12)"><path d="M6,6H3C1.3,6,0,4.7,0,3V0l6,0V6z"></path></g>
        <g transform="translate(768,432) scale(4.12)"><path d="M3,6H0V0l6,0v3C6,4.7,4.7,6,3,6z"></path></g>
        <g transform="translate(816,432) scale(4.12)"><circle cx="3" cy="3" r="3"></circle></g>
        <g transform="translate(864,432) scale(4.12)"><circle cx="3" cy="3" r="3"></circle></g>
        <g transform="translate(72,456) scale(4.12)"><path d="M3,6L3,6C1.3,6,0,4.7,0,3V0h6v3C6,4.7,4.7,6,3,6z"></path></g>
        <g transform="translate(144,456) scale(4.12)"><path d="M6,6H3C1.3,6,0,4.7,0,3v0c0-1.7,1.3-3,3-3h3C6,0,6,6,6,6z"></path></g>
        <g transform="translate(168,456) scale(4.12)"><path d="M3,6H0V0l6,0v3C6,4.7,4.7,6,3,6z"></path></g>
        <g transform="translate(216,456) scale(4.12)"><path d="M6,6H3C1.3,6,0,4.7,0,3V0l6,0V6z"></path></g>
        <g transform="translate(240,456) scale(4.12)"><rect width="6" height="6"></rect></g>
        <g transform="translate(288,456) scale(4.12)"><rect width="6" height="6"></rect></g>
        <g transform="translate(384,456) scale(4.12)"><path d="M6,6H0V3c0-1.7,1.3-3,3-3h0c1.7,0,3,1.3,3,3V6z"></path></g>
        <g transform="translate(456,456) scale(4.12)"><rect width="6" height="6"></rect></g>
        <g transform="translate(480,456) scale(4.12)"><path d="M3,6H0V0l3,0c1.7,0,3,1.3,3,3v0C6,4.7,4.7,6,3,6z"></path></g>
        <g transform="translate(720,456) scale(4.12)"><circle cx="3" cy="3" r="3"></circle></g>
        <g transform="translate(792,456) scale(4.12)"><circle cx="3" cy="3" r="3"></circle></g>
        <g transform="translate(48,480) scale(4.12)"><circle cx="3" cy="3" r="3"></circle></g>
        <g transform="translate(96,480) scale(4.12)"><path d="M6,6H3C1.3,6,0,4.7,0,3v0c0-1.7,1.3-3,3-3h3C6,0,6,6,6,6z"></path></g>
        <g transform="translate(120,480) scale(4.12)"><path d="M6,6H0V0l3,0c1.7,0,3,1.3,3,3V6z"></path></g>
        <g transform="translate(192,480) scale(4.12)"><circle cx="3" cy="3" r="3"></circle></g>
        <g transform="translate(240,480) scale(4.12)"><path d="M3,6L3,6C1.3,6,0,4.7,0,3V0h6v3C6,4.7,4.7,6,3,6z"></path></g>
        <g transform="translate(288,480) scale(4.12)"><rect width="6" height="6"></rect></g>
        <g transform="translate(360,480) scale(4.12)"><path d="M6,6H3C1.3,6,0,4.7,0,3v0c0-1.7,1.3-3,3-3h3C6,0,6,6,6,6z"></path></g>
        <g transform="translate(384,480) scale(4.12)"><rect width="6" height="6"></rect></g>
        <g transform="translate(408,480) scale(4.12)"><rect width="6" height="6"></rect></g>
        <g transform="translate(432,480) scale(4.12)"><rect width="6" height="6"></rect></g>
        <g transform="translate(456,480) scale(4.12)"><path d="M3,6H0V0l6,0v3C6,4.7,4.7,6,3,6z"></path></g>
        <g transform="translate(528,480) scale(4.12)"><path d="M6,6H0V3c0-1.7,1.3-3,3-3l3,0V6z"></path></g>
        <g transform="translate(552,480) scale(4.12)"><rect width="6" height="6"></rect></g>
        <g transform="translate(576,480) scale(4.12)"><path d="M3,6H0V0l3,0c1.7,0,3,1.3,3,3v0C6,4.7,4.7,6,3,6z"></path></g>
        <g transform="translate(624,480) scale(4.12)"><path d="M6,6H3C1.3,6,0,4.7,0,3v0c0-1.7,1.3-3,3-3h3C6,0,6,6,6,6z"></path></g>
        <g transform="translate(648,480) scale(4.12)"><path d="M3,6H0V0l3,0c1.7,0,3,1.3,3,3v0C6,4.7,4.7,6,3,6z"></path></g>
        <g transform="translate(696,480) scale(4.12)"><path d="M6,6H0V3c0-1.7,1.3-3,3-3h0c1.7,0,3,1.3,3,3V6z"></path></g>
        <g transform="translate(768,480) scale(4.12)"><circle cx="3" cy="3" r="3"></circle></g>
        <g transform="translate(840,480) scale(4.12)"><circle cx="3" cy="3" r="3"></circle></g>
        <g transform="translate(888,480) scale(4.12)"><path d="M6,6H0V3c0-1.7,1.3-3,3-3l3,0V6z"></path></g>
        <g transform="translate(912,480) scale(4.12)"><path d="M3,6H0V0l3,0c1.7,0,3,1.3,3,3v0C6,4.7,4.7,6,3,6z"></path></g>
        <g transform="translate(72,504) scale(4.12)"><circle cx="3" cy="3" r="3"></circle></g>
        <g transform="translate(120,504) scale(4.12)"><path d="M3,6L3,6C1.3,6,0,4.7,0,3V0h6v3C6,4.7,4.7,6,3,6z"></path></g>
        <g transform="translate(168,504) scale(4.12)"><path d="M6,6H0V3c0-1.7,1.3-3,3-3h0c1.7,0,3,1.3,3,3V6z"></path></g>
        <g transform="translate(264,504) scale(4.12)"><path d="M6,6H0V3c0-1.7,1.3-3,3-3l3,0V6z"></path></g>
        <g transform="translate(288,504) scale(4.12)"><path d="M3,6H0V0l6,0v3C6,4.7,4.7,6,3,6z"></path></g>
        <g transform="translate(480,504) scale(4.12)"><circle cx="3" cy="3" r="3"></circle></g>
        <g transform="translate(528,504) scale(4.12)"><rect width="6" height="6"></rect></g>
        <g transform="translate(672,504) scale(4.12)"><path d="M6,6H3C1.3,6,0,4.7,0,3v0c0-1.7,1.3-3,3-3h3C6,0,6,6,6,6z"></path></g>
        <g transform="translate(696,504) scale(4.12)"><rect width="6" height="6"></rect></g>
        <g transform="translate(720,504) scale(4.12)"><path d="M3,6H0V0l3,0c1.7,0,3,1.3,3,3v0C6,4.7,4.7,6,3,6z"></path></g>
        <g transform="translate(792,504) scale(4.12)"><path d="M6,6H0V3c0-1.7,1.3-3,3-3l3,0V6z"></path></g>
        <g transform="translate(816,504) scale(4.12)"><path d="M6,6H0V0l3,0c1.7,0,3,1.3,3,3V6z"></path></g>
        <g transform="translate(888,504) scale(4.12)"><rect width="6" height="6"></rect></g>
        <g transform="translate(48,528) scale(4.12)"><path d="M6,6H0V3c0-1.7,1.3-3,3-3h0c1.7,0,3,1.3,3,3V6z"></path></g>
        <g transform="translate(96,528) scale(4.12)"><circle cx="3" cy="3" r="3"></circle></g>
        <g transform="translate(168,528) scale(4.12)"><path d="M6,6H3C1.3,6,0,4.7,0,3V0l6,0V6z"></path></g>
        <g transform="translate(192,528) scale(4.12)"><rect width="6" height="6"></rect></g>
        <g transform="translate(216,528) scale(4.12)"><path d="M3,6H0V0l3,0c1.7,0,3,1.3,3,3v0C6,4.7,4.7,6,3,6z"></path></g>
        <g transform="translate(264,528) scale(4.12)"><rect width="6" height="6"></rect></g>
        <g transform="translate(312,528) scale(4.12)"><path d="M6,6H0V3c0-1.7,1.3-3,3-3l3,0V6z"></path></g>
        <g transform="translate(336,528) scale(4.12)"><path d="M6,6H0V0l3,0c1.7,0,3,1.3,3,3V6z"></path></g>
        <g transform="translate(384,528) scale(4.12)"><path d="M6,6H3C1.3,6,0,4.7,0,3v0c0-1.7,1.3-3,3-3h3C6,0,6,6,6,6z"></path></g>
        <g transform="translate(408,528) scale(4.12)"><path d="M6,6H0V0l3,0c1.7,0,3,1.3,3,3V6z"></path></g>
        <g transform="translate(456,528) scale(4.12)"><circle cx="3" cy="3" r="3"></circle></g>
        <g transform="translate(528,528) scale(4.12)"><rect width="6" height="6"></rect></g>
        <g transform="translate(576,528) scale(4.12)"><path d="M6,6H0V3c0-1.7,1.3-3,3-3h0c1.7,0,3,1.3,3,3V6z"></path></g>
        <g transform="translate(648,528) scale(4.12)"><path d="M6,6H0V3c0-1.7,1.3-3,3-3h0c1.7,0,3,1.3,3,3V6z"></path></g>
        <g transform="translate(744,528) scale(4.12)"><path d="M6,6H3C1.3,6,0,4.7,0,3v0c0-1.7,1.3-3,3-3h3C6,0,6,6,6,6z"></path></g>
        <g transform="translate(768,528) scale(4.12)"><rect width="6" height="6"></rect></g>
        <g transform="translate(792,528) scale(4.12)"><rect width="6" height="6"></rect></g>
        <g transform="translate(816,528) scale(4.12)"><rect width="6" height="6"></rect></g>
        <g transform="translate(840,528) scale(4.12)"><rect width="6" height="6"></rect></g>
        <g transform="translate(864,528) scale(4.12)"><rect width="6" height="6"></rect></g>
        <g transform="translate(888,528) scale(4.12)"><rect width="6" height="6"></rect></g>
        <g transform="translate(912,528) scale(4.12)"><path d="M3,6H0V0l3,0c1.7,0,3,1.3,3,3v0C6,4.7,4.7,6,3,6z"></path></g>
        <g transform="translate(48,552) scale(4.12)"><path d="M3,6L3,6C1.3,6,0,4.7,0,3V0h6v3C6,4.7,4.7,6,3,6z"></path></g>
        <g transform="translate(240,552) scale(4.12)"><path d="M6,6H0V3c0-1.7,1.3-3,3-3l3,0V6z"></path></g>
        <g transform="translate(264,552) scale(4.12)"><rect width="6" height="6"></rect></g>
        <g transform="translate(312,552) scale(4.12)"><rect width="6" height="6"></rect></g>
        <g transform="translate(336,552) scale(4.12)"><path d="M3,6H0V0l6,0v3C6,4.7,4.7,6,3,6z"></path></g>
        <g transform="translate(408,552) scale(4.12)"><path d="M6,6H3C1.3,6,0,4.7,0,3V0l6,0V6z"></path></g>
        <g transform="translate(432,552) scale(4.12)"><path d="M6,6H0V0l3,0c1.7,0,3,1.3,3,3V6z"></path></g>
        <g transform="translate(504,552) scale(4.12)"><path d="M6,6H0V3c0-1.7,1.3-3,3-3l3,0V6z"></path></g>
        <g transform="translate(528,552) scale(4.12)"><rect width="6" height="6"></rect></g>
        <g transform="translate(576,552) scale(4.12)"><path d="M3,6L3,6C1.3,6,0,4.7,0,3V0h6v3C6,4.7,4.7,6,3,6z"></path></g>
        <g transform="translate(648,552) scale(4.12)"><rect width="6" height="6"></rect></g>
        <g transform="translate(792,552) scale(4.12)"><path d="M3,6L3,6C1.3,6,0,4.7,0,3V0h6v3C6,4.7,4.7,6,3,6z"></path></g>
        <g transform="translate(864,552) scale(4.12)"><path d="M3,6L3,6C1.3,6,0,4.7,0,3V0h6v3C6,4.7,4.7,6,3,6z"></path></g>
        <g transform="translate(120,576) scale(4.12)"><path d="M6,6H0V3c0-1.7,1.3-3,3-3l3,0V6z"></path></g>
        <g transform="translate(144,576) scale(4.12)"><rect width="6" height="6"></rect></g>
        <g transform="translate(168,576) scale(4.12)"><rect width="6" height="6"></rect></g>
        <g transform="translate(192,576) scale(4.12)"><rect width="6" height="6"></rect></g>
        <g transform="translate(216,576) scale(4.12)"><rect width="6" height="6"></rect></g>
        <g transform="translate(240,576) scale(4.12)"><rect width="6" height="6"></rect></g>
        <g transform="translate(264,576) scale(4.12)"><rect width="6" height="6"></rect></g>
        <g transform="translate(288,576) scale(4.12)"><rect width="6" height="6"></rect></g>
        <g transform="translate(312,576) scale(4.12)"><path d="M3,6H0V0l6,0v3C6,4.7,4.7,6,3,6z"></path></g>
        <g transform="translate(360,576) scale(4.12)"><path d="M6,6H3C1.3,6,0,4.7,0,3v0c0-1.7,1.3-3,3-3h3C6,0,6,6,6,6z"></path></g>
        <g transform="translate(384,576) scale(4.12)"><path d="M6,6H0V0l3,0c1.7,0,3,1.3,3,3V6z"></path></g>
        <g transform="translate(432,576) scale(4.12)"><path d="M6,6H3C1.3,6,0,4.7,0,3V0l6,0V6z"></path></g>
        <g transform="translate(456,576) scale(4.12)"><path d="M3,6H0V0l3,0c1.7,0,3,1.3,3,3v0C6,4.7,4.7,6,3,6z"></path></g>
        <g transform="translate(504,576) scale(4.12)"><path d="M6,6H3C1.3,6,0,4.7,0,3V0l6,0V6z"></path></g>
        <g transform="translate(528,576) scale(4.12)"><rect width="6" height="6"></rect></g>
        <g transform="translate(552,576) scale(4.12)"><path d="M3,6H0V0l3,0c1.7,0,3,1.3,3,3v0C6,4.7,4.7,6,3,6z"></path></g>
        <g transform="translate(600,576) scale(4.12)"><circle cx="3" cy="3" r="3"></circle></g>
        <g transform="translate(648,576) scale(4.12)"><rect width="6" height="6"></rect></g>
        <g transform="translate(672,576) scale(4.12)"><rect width="6" height="6"></rect></g>
        <g transform="translate(696,576) scale(4.12)"><path d="M3,6H0V0l3,0c1.7,0,3,1.3,3,3v0C6,4.7,4.7,6,3,6z"></path></g>
        <g transform="translate(744,576) scale(4.12)"><path d="M6,6H0V3c0-1.7,1.3-3,3-3l3,0V6z"></path></g>
        <g transform="translate(768,576) scale(4.12)"><path d="M6,6H0V0l3,0c1.7,0,3,1.3,3,3V6z"></path></g>
        <g transform="translate(912,576) scale(4.12)"><circle cx="3" cy="3" r="3"></circle></g>
        <g transform="translate(120,600) scale(4.12)"><rect width="6" height="6"></rect></g>
        <g transform="translate(216,600) scale(4.12)"><path d="M3,6L3,6C1.3,6,0,4.7,0,3V0h6v3C6,4.7,4.7,6,3,6z"></path></g>
        <g transform="translate(264,600) scale(4.12)"><rect width="6" height="6"></rect></g>
        <g transform="translate(288,600) scale(4.12)"><path d="M3,6H0V0l6,0v3C6,4.7,4.7,6,3,6z"></path></g>
        <g transform="translate(384,600) scale(4.12)"><rect width="6" height="6"></rect></g>
        <g transform="translate(648,600) scale(4.12)"><path d="M3,6L3,6C1.3,6,0,4.7,0,3V0h6v3C6,4.7,4.7,6,3,6z"></path></g>
        <g transform="translate(744,600) scale(4.12)"><rect width="6" height="6"></rect></g>
        <g transform="translate(768,600) scale(4.12)"><rect width="6" height="6"></rect></g>
        <g transform="translate(792,600) scale(4.12)"><path d="M6,6H0V0l3,0c1.7,0,3,1.3,3,3V6z"></path></g>
        <g transform="translate(72,624) scale(4.12)"><path d="M6,6H0V3c0-1.7,1.3-3,3-3h0c1.7,0,3,1.3,3,3V6z"></path></g>
        <g transform="translate(120,624) scale(4.12)"><rect width="6" height="6"></rect></g>
        <g transform="translate(144,624) scale(4.12)"><path d="M6,6H0V0l3,0c1.7,0,3,1.3,3,3V6z"></path></g>
        <g transform="translate(192,624) scale(4.12)"><circle cx="3" cy="3" r="3"></circle></g>
        <g transform="translate(264,624) scale(4.12)"><path d="M3,6L3,6C1.3,6,0,4.7,0,3V0h6v3C6,4.7,4.7,6,3,6z"></path></g>
        <g transform="translate(336,624) scale(4.12)"><path d="M6,6H0V3c0-1.7,1.3-3,3-3h0c1.7,0,3,1.3,3,3V6z"></path></g>
        <g transform="translate(384,624) scale(4.12)"><path d="M3,6L3,6C1.3,6,0,4.7,0,3V0h6v3C6,4.7,4.7,6,3,6z"></path></g>
        <g transform="translate(432,624) scale(4.12)"><circle cx="3" cy="3" r="3"></circle></g>
        <g transform="translate(528,624) scale(4.12)"><path d="M6,6H0V3c0-1.7,1.3-3,3-3h0c1.7,0,3,1.3,3,3V6z"></path></g>
        <g transform="translate(576,624) scale(4.12)"><path d="M6,6H0V3c0-1.7,1.3-3,3-3h0c1.7,0,3,1.3,3,3V6z"></path></g>
        <g transform="translate(624,624) scale(4.12)"><circle cx="3" cy="3" r="3"></circle></g>
        <g transform="translate(672,624) scale(4.12)"><circle cx="3" cy="3" r="3"></circle></g>
        <g transform="translate(744,624) scale(4.12)"><path d="M6,6H3C1.3,6,0,4.7,0,3V0l6,0V6z"></path></g>
        <g transform="translate(768,624) scale(4.12)"><rect width="6" height="6"></rect></g>
        <g transform="translate(792,624) scale(4.12)"><rect width="6" height="6"></rect></g>
        <g transform="translate(816,624) scale(4.12)"><rect width="6" height="6"></rect></g>
        <g transform="translate(840,624) scale(4.12)"><rect width="6" height="6"></rect></g>
        <g transform="translate(864,624) scale(4.12)"><path d="M6,6H0V0l3,0c1.7,0,3,1.3,3,3V6z"></path></g>
        <g transform="translate(912,624) scale(4.12)"><circle cx="3" cy="3" r="3"></circle></g>
        <g transform="translate(48,648) scale(4.12)"><path d="M6,6H0V3c0-1.7,1.3-3,3-3l3,0V6z"></path></g>
        <g transform="translate(72,648) scale(4.12)"><path d="M3,6H0V0l6,0v3C6,4.7,4.7,6,3,6z"></path></g>
        <g transform="translate(120,648) scale(4.12)"><path d="M6,6H3C1.3,6,0,4.7,0,3V0l6,0V6z"></path></g>
        <g transform="translate(144,648) scale(4.12)"><path d="M3,6H0V0l6,0v3C6,4.7,4.7,6,3,6z"></path></g>
        <g transform="translate(288,648) scale(4.12)"><path d="M6,6H3C1.3,6,0,4.7,0,3v0c0-1.7,1.3-3,3-3h3C6,0,6,6,6,6z"></path></g>
        <g transform="translate(312,648) scale(4.12)"><rect width="6" height="6"></rect></g>
        <g transform="translate(336,648) scale(4.12)"><path d="M3,6H0V0l6,0v3C6,4.7,4.7,6,3,6z"></path></g>
        <g transform="translate(480,648) scale(4.12)"><circle cx="3" cy="3" r="3"></circle></g>
        <g transform="translate(528,648) scale(4.12)"><rect width="6" height="6"></rect></g>
        <g transform="translate(576,648) scale(4.12)"><path d="M3,6L3,6C1.3,6,0,4.7,0,3V0h6v3C6,4.7,4.7,6,3,6z"></path></g>
        <g transform="translate(648,648) scale(4.12)"><path d="M6,6H0V3c0-1.7,1.3-3,3-3h0c1.7,0,3,1.3,3,3V6z"></path></g>
        <g transform="translate(696,648) scale(4.12)"><path d="M6,6H0V3c0-1.7,1.3-3,3-3h0c1.7,0,3,1.3,3,3V6z"></path></g>
        <g transform="translate(792,648) scale(4.12)"><rect width="6" height="6"></rect></g>
        <g transform="translate(840,648) scale(4.12)"><path d="M6,6H3C1.3,6,0,4.7,0,3V0l6,0V6z"></path></g>
        <g transform="translate(864,648) scale(4.12)"><rect width="6" height="6"></rect></g>
        <g transform="translate(48,672) scale(4.12)"><rect width="6" height="6"></rect></g>
        <g transform="translate(96,672) scale(4.12)"><circle cx="3" cy="3" r="3"></circle></g>
        <g transform="translate(168,672) scale(4.12)"><path d="M6,6H0V3c0-1.7,1.3-3,3-3l3,0V6z"></path></g>
        <g transform="translate(192,672) scale(4.12)"><path d="M3,6H0V0l3,0c1.7,0,3,1.3,3,3v0C6,4.7,4.7,6,3,6z"></path></g>
        <g transform="translate(240,672) scale(4.12)"><circle cx="3" cy="3" r="3"></circle></g>
        <g transform="translate(312,672) scale(4.12)"><path d="M3,6L3,6C1.3,6,0,4.7,0,3V0h6v3C6,4.7,4.7,6,3,6z"></path></g>
        <g transform="translate(408,672) scale(4.12)"><path d="M6,6H3C1.3,6,0,4.7,0,3v0c0-1.7,1.3-3,3-3h3C6,0,6,6,6,6z"></path></g>
        <g transform="translate(432,672) scale(4.12)"><rect width="6" height="6"></rect></g>
        <g transform="translate(456,672) scale(4.12)"><path d="M6,6H0V0l3,0c1.7,0,3,1.3,3,3V6z"></path></g>
        <g transform="translate(528,672) scale(4.12)"><path d="M3,6L3,6C1.3,6,0,4.7,0,3V0h6v3C6,4.7,4.7,6,3,6z"></path></g>
        <g transform="translate(600,672) scale(4.12)"><path d="M6,6H0V3c0-1.7,1.3-3,3-3l3,0V6z"></path></g>
        <g transform="translate(624,672) scale(4.12)"><rect width="6" height="6"></rect></g>
        <g transform="translate(648,672) scale(4.12)"><rect width="6" height="6"></rect></g>
        <g transform="translate(672,672) scale(4.12)"><rect width="6" height="6"></rect></g>
        <g transform="translate(696,672) scale(4.12)"><path d="M3,6H0V0l6,0v3C6,4.7,4.7,6,3,6z"></path></g>
        <g transform="translate(768,672) scale(4.12)"><path d="M6,6H3C1.3,6,0,4.7,0,3v0c0-1.7,1.3-3,3-3h3C6,0,6,6,6,6z"></path></g>
        <g transform="translate(792,672) scale(4.12)"><path d="M3,6H0V0l6,0v3C6,4.7,4.7,6,3,6z"></path></g>
        <g transform="translate(864,672) scale(4.12)"><path d="M3,6L3,6C1.3,6,0,4.7,0,3V0h6v3C6,4.7,4.7,6,3,6z"></path></g>
        <g transform="translate(912,672) scale(4.12)"><path d="M6,6H0V3c0-1.7,1.3-3,3-3h0c1.7,0,3,1.3,3,3V6z"></path></g>
        <g transform="translate(48,696) scale(4.12)"><rect width="6" height="6"></rect></g>
        <g transform="translate(144,696) scale(4.12)"><path d="M6,6H0V3c0-1.7,1.3-3,3-3l3,0V6z"></path></g>
        <g transform="translate(168,696) scale(4.12)"><rect width="6" height="6"></rect></g>
        <g transform="translate(264,696) scale(4.12)"><path d="M6,6H0V3c0-1.7,1.3-3,3-3l3,0V6z"></path></g>
        <g transform="translate(288,696) scale(4.12)"><path d="M3,6H0V0l3,0c1.7,0,3,1.3,3,3v0C6,4.7,4.7,6,3,6z"></path></g>
        <g transform="translate(336,696) scale(4.12)"><path d="M6,6H0V3c0-1.7,1.3-3,3-3h0c1.7,0,3,1.3,3,3V6z"></path></g>
        <g transform="translate(384,696) scale(4.12)"><path d="M6,6H0V3c0-1.7,1.3-3,3-3h0c1.7,0,3,1.3,3,3V6z"></path></g>
        <g transform="translate(432,696) scale(4.12)"><path d="M6,6H3C1.3,6,0,4.7,0,3V0l6,0V6z"></path></g>
        <g transform="translate(456,696) scale(4.12)"><path d="M3,6H0V0l6,0v3C6,4.7,4.7,6,3,6z"></path></g>
        <g transform="translate(600,696) scale(4.12)"><rect width="6" height="6"></rect></g>
        <g transform="translate(672,696) scale(4.12)"><rect width="6" height="6"></rect></g>
        <g transform="translate(720,696) scale(4.12)"><path d="M6,6H0V3c0-1.7,1.3-3,3-3l3,0V6z"></path></g>
        <g transform="translate(744,696) scale(4.12)"><path d="M6,6H0V0l3,0c1.7,0,3,1.3,3,3V6z"></path></g>
        <g transform="translate(888,696) scale(4.12)"><path d="M6,6H0V3c0-1.7,1.3-3,3-3l3,0V6z"></path></g>
        <g transform="translate(912,696) scale(4.12)"><rect width="6" height="6"></rect></g>
        <g transform="translate(48,720) scale(4.12)"><path d="M3,6L3,6C1.3,6,0,4.7,0,3V0h6v3C6,4.7,4.7,6,3,6z"></path></g>
        <g transform="translate(96,720) scale(4.12)"><path d="M6,6H3C1.3,6,0,4.7,0,3v0c0-1.7,1.3-3,3-3h3C6,0,6,6,6,6z"></path></g>
        <g transform="translate(120,720) scale(4.12)"><rect width="6" height="6"></rect></g>
        <g transform="translate(144,720) scale(4.12)"><rect width="6" height="6"></rect></g>
        <g transform="translate(168,720) scale(4.12)"><rect width="6" height="6"></rect></g>
        <g transform="translate(192,720) scale(4.12)"><rect width="6" height="6"></rect></g>
        <g transform="translate(216,720) scale(4.12)"><rect width="6" height="6"></rect></g>
        <g transform="translate(240,720) scale(4.12)"><rect width="6" height="6"></rect></g>
        <g transform="translate(264,720) scale(4.12)"><rect width="6" height="6"></rect></g>
        <g transform="translate(312,720) scale(4.12)"><path d="M6,6H0V3c0-1.7,1.3-3,3-3l3,0V6z"></path></g>
        <g transform="translate(336,720) scale(4.12)"><rect width="6" height="6"></rect></g>
        <g transform="translate(384,720) scale(4.12)"><rect width="6" height="6"></rect></g>
        <g transform="translate(408,720) scale(4.12)"><path d="M3,6H0V0l3,0c1.7,0,3,1.3,3,3v0C6,4.7,4.7,6,3,6z"></path></g>
        <g transform="translate(480,720) scale(4.12)"><path d="M6,6H0V3c0-1.7,1.3-3,3-3l3,0V6z"></path></g>
        <g transform="translate(504,720) scale(4.12)"><path d="M3,6H0V0l3,0c1.7,0,3,1.3,3,3v0C6,4.7,4.7,6,3,6z"></path></g>
        <g transform="translate(552,720) scale(4.12)"><path d="M6,6H3C1.3,6,0,4.7,0,3v0c0-1.7,1.3-3,3-3h3C6,0,6,6,6,6z"></path></g>
        <g transform="translate(576,720) scale(4.12)"><rect width="6" height="6"></rect></g>
        <g transform="translate(600,720) scale(4.12)"><rect width="6" height="6"></rect></g>
        <g transform="translate(648,720) scale(4.12)"><path d="M6,6H0V3c0-1.7,1.3-3,3-3l3,0V6z"></path></g>
        <g transform="translate(672,720) scale(4.12)"><rect width="6" height="6"></rect></g>
        <g transform="translate(720,720) scale(4.12)"><rect width="6" height="6"></rect></g>
        <g transform="translate(744,720) scale(4.12)"><rect width="6" height="6"></rect></g>
        <g transform="translate(768,720) scale(4.12)"><rect width="6" height="6"></rect></g>
        <g transform="translate(792,720) scale(4.12)"><rect width="6" height="6"></rect></g>
        <g transform="translate(816,720) scale(4.12)"><rect width="6" height="6"></rect></g>
        <g transform="translate(840,720) scale(4.12)"><rect width="6" height="6"></rect></g>
        <g transform="translate(864,720) scale(4.12)"><rect width="6" height="6"></rect></g>
        <g transform="translate(888,720) scale(4.12)"><rect width="6" height="6"></rect></g>
        <g transform="translate(912,720) scale(4.12)"><path d="M3,6H0V0l6,0v3C6,4.7,4.7,6,3,6z"></path></g>
        <g transform="translate(240,744) scale(4.12)"><path d="M6,6H3C1.3,6,0,4.7,0,3V0l6,0V6z"></path></g>
        <g transform="translate(264,744) scale(4.12)"><path d="M3,6H0V0l6,0v3C6,4.7,4.7,6,3,6z"></path></g>
        <g transform="translate(312,744) scale(4.12)"><rect width="6" height="6"></rect></g>
        <g transform="translate(336,744) scale(4.12)"><rect width="6" height="6"></rect></g>
        <g transform="translate(360,744) scale(4.12)"><rect width="6" height="6"></rect></g>
        <g transform="translate(384,744) scale(4.12)"><path d="M3,6H0V0l6,0v3C6,4.7,4.7,6,3,6z"></path></g>
        <g transform="translate(456,744) scale(4.12)"><path d="M6,6H3C1.3,6,0,4.7,0,3v0c0-1.7,1.3-3,3-3h3C6,0,6,6,6,6z"></path></g>
        <g transform="translate(480,744) scale(4.12)"><rect width="6" height="6"></rect></g>
        <g transform="translate(600,744) scale(4.12)"><path d="M3,6L3,6C1.3,6,0,4.7,0,3V0h6v3C6,4.7,4.7,6,3,6z"></path></g>
        <g transform="translate(648,744) scale(4.12)"><path d="M6,6H3C1.3,6,0,4.7,0,3V0l6,0V6z"></path></g>
        <g transform="translate(672,744) scale(4.12)"><path d="M3,6H0V0l6,0v3C6,4.7,4.7,6,3,6z"></path></g>
        <g transform="translate(720,744) scale(4.12)"><rect width="6" height="6"></rect></g>
        <g transform="translate(816,744) scale(4.12)"><rect width="6" height="6"></rect></g>
        <g transform="translate(288,768) scale(4.12)"><path d="M6,6H3C1.3,6,0,4.7,0,3v0c0-1.7,1.3-3,3-3h3C6,0,6,6,6,6z"></path></g>
        <g transform="translate(312,768) scale(4.12)"><rect width="6" height="6"></rect></g>
        <g transform="translate(360,768) scale(4.12)"><rect width="6" height="6"></rect></g>
        <g transform="translate(408,768) scale(4.12)"><path d="M6,6H0V3c0-1.7,1.3-3,3-3l3,0V6z"></path></g>
        <g transform="translate(432,768) scale(4.12)"><path d="M6,6H0V0l3,0c1.7,0,3,1.3,3,3V6z"></path></g>
        <g transform="translate(480,768) scale(4.12)"><path d="M3,6L3,6C1.3,6,0,4.7,0,3V0h6v3C6,4.7,4.7,6,3,6z"></path></g>
        <g transform="translate(528,768) scale(4.12)"><circle cx="3" cy="3" r="3"></circle></g>
        <g transform="translate(624,768) scale(4.12)"><circle cx="3" cy="3" r="3"></circle></g>
        <g transform="translate(720,768) scale(4.12)"><rect width="6" height="6"></rect></g>
        <g transform="translate(768,768) scale(4.12)"><circle cx="3" cy="3" r="3"></circle></g>
        <g transform="translate(816,768) scale(4.12)"><rect width="6" height="6"></rect></g>
        <g transform="translate(840,768) scale(4.12)"><path d="M3,6H0V0l3,0c1.7,0,3,1.3,3,3v0C6,4.7,4.7,6,3,6z"></path></g>
        <g transform="translate(888,768) scale(4.12)"><path d="M6,6H3C1.3,6,0,4.7,0,3v0c0-1.7,1.3-3,3-3h3C6,0,6,6,6,6z"></path></g>
        <g transform="translate(912,768) scale(4.12)"><path d="M6,6H0V0l3,0c1.7,0,3,1.3,3,3V6z"></path></g>
        <g transform="translate(264,792) scale(4.12)"><path d="M6,6H0V3c0-1.7,1.3-3,3-3h0c1.7,0,3,1.3,3,3V6z"></path></g>
        <g transform="translate(312,792) scale(4.12)"><rect width="6" height="6"></rect></g>
        <g transform="translate(336,792) scale(4.12)"><rect width="6" height="6"></rect></g>
        <g transform="translate(360,792) scale(4.12)"><rect width="6" height="6"></rect></g>
        <g transform="translate(384,792) scale(4.12)"><rect width="6" height="6"></rect></g>
        <g transform="translate(408,792) scale(4.12)"><rect width="6" height="6"></rect></g>
        <g transform="translate(432,792) scale(4.12)"><path d="M3,6H0V0l6,0v3C6,4.7,4.7,6,3,6z"></path></g>
        <g transform="translate(552,792) scale(4.12)"><path d="M6,6H0V3c0-1.7,1.3-3,3-3l3,0V6z"></path></g>
        <g transform="translate(576,792) scale(4.12)"><rect width="6" height="6"></rect></g>
        <g transform="translate(600,792) scale(4.12)"><path d="M3,6H0V0l3,0c1.7,0,3,1.3,3,3v0C6,4.7,4.7,6,3,6z"></path></g>
        <g transform="translate(672,792) scale(4.12)"><path d="M6,6H0V3c0-1.7,1.3-3,3-3h0c1.7,0,3,1.3,3,3V6z"></path></g>
        <g transform="translate(720,792) scale(4.12)"><rect width="6" height="6"></rect></g>
        <g transform="translate(816,792) scale(4.12)"><rect width="6" height="6"></rect></g>
        <g transform="translate(912,792) scale(4.12)"><rect width="6" height="6"></rect></g>
        <g transform="translate(240,816) scale(4.12)"><path d="M6,6H0V3c0-1.7,1.3-3,3-3l3,0V6z"></path></g>
        <g transform="translate(264,816) scale(4.12)"><rect width="6" height="6"></rect></g>
        <g transform="translate(288,816) scale(4.12)"><rect width="6" height="6"></rect></g>
        <g transform="translate(312,816) scale(4.12)"><rect width="6" height="6"></rect></g>
        <g transform="translate(336,816) scale(4.12)"><rect width="6" height="6"></rect></g>
        <g transform="translate(360,816) scale(4.12)"><rect width="6" height="6"></rect></g>
        <g transform="translate(384,816) scale(4.12)"><rect width="6" height="6"></rect></g>
        <g transform="translate(408,816) scale(4.12)"><path d="M3,6H0V0l6,0v3C6,4.7,4.7,6,3,6z"></path></g>
        <g transform="translate(456,816) scale(4.12)"><path d="M6,6H0V3c0-1.7,1.3-3,3-3l3,0V6z"></path></g>
        <g transform="translate(480,816) scale(4.12)"><rect width="6" height="6"></rect></g>
        <g transform="translate(504,816) scale(4.12)"><rect width="6" height="6"></rect></g>
        <g transform="translate(528,816) scale(4.12)"><rect width="6" height="6"></rect></g>
        <g transform="translate(552,816) scale(4.12)"><rect width="6" height="6"></rect></g>
        <g transform="translate(648,816) scale(4.12)"><path d="M6,6H0V3c0-1.7,1.3-3,3-3l3,0V6z"></path></g>
        <g transform="translate(672,816) scale(4.12)"><rect width="6" height="6"></rect></g>
        <g transform="translate(696,816) scale(4.12)"><rect width="6" height="6"></rect></g>
        <g transform="translate(720,816) scale(4.12)"><rect width="6" height="6"></rect></g>
        <g transform="translate(744,816) scale(4.12)"><rect width="6" height="6"></rect></g>
        <g transform="translate(768,816) scale(4.12)"><rect width="6" height="6"></rect></g>
        <g transform="translate(792,816) scale(4.12)"><rect width="6" height="6"></rect></g>
        <g transform="translate(816,816) scale(4.12)"><rect width="6" height="6"></rect></g>
        <g transform="translate(864,816) scale(4.12)"><circle cx="3" cy="3" r="3"></circle></g>
        <g transform="translate(912,816) scale(4.12)"><path d="M3,6L3,6C1.3,6,0,4.7,0,3V0h6v3C6,4.7,4.7,6,3,6z"></path></g>
        <g transform="translate(240,840) scale(4.12)"><rect width="6" height="6"></rect></g>
        <g transform="translate(384,840) scale(4.12)"><path d="M3,6L3,6C1.3,6,0,4.7,0,3V0h6v3C6,4.7,4.7,6,3,6z"></path></g>
        <g transform="translate(456,840) scale(4.12)"><path d="M3,6L3,6C1.3,6,0,4.7,0,3V0h6v3C6,4.7,4.7,6,3,6z"></path></g>
        <g transform="translate(504,840) scale(4.12)"><rect width="6" height="6"></rect></g>
        <g transform="translate(528,840) scale(4.12)"><rect width="6" height="6"></rect></g>
        <g transform="translate(552,840) scale(4.12)"><path d="M3,6H0V0l6,0v3C6,4.7,4.7,6,3,6z"></path></g>
        <g transform="translate(624,840) scale(4.12)"><path d="M6,6H3C1.3,6,0,4.7,0,3v0c0-1.7,1.3-3,3-3h3C6,0,6,6,6,6z"></path></g>
        <g transform="translate(648,840) scale(4.12)"><rect width="6" height="6"></rect></g>
        <g transform="translate(768,840) scale(4.12)"><path d="M6,6H3C1.3,6,0,4.7,0,3V0l6,0V6z"></path></g>
        <g transform="translate(792,840) scale(4.12)"><rect width="6" height="6"></rect></g>
        <g transform="translate(816,840) scale(4.12)"><rect width="6" height="6"></rect></g>
        <g transform="translate(840,840) scale(4.12)"><path d="M3,6H0V0l3,0c1.7,0,3,1.3,3,3v0C6,4.7,4.7,6,3,6z"></path></g>
        <g transform="translate(240,864) scale(4.12)"><path d="M6,6H3C1.3,6,0,4.7,0,3V0l6,0V6z"></path></g>
        <g transform="translate(264,864) scale(4.12)"><rect width="6" height="6"></rect></g>
        <g transform="translate(288,864) scale(4.12)"><path d="M3,6H0V0l3,0c1.7,0,3,1.3,3,3v0C6,4.7,4.7,6,3,6z"></path></g>
        <g transform="translate(336,864) scale(4.12)"><path d="M6,6H0V3c0-1.7,1.3-3,3-3l3,0V6z"></path></g>
        <g transform="translate(360,864) scale(4.12)"><path d="M3,6H0V0l3,0c1.7,0,3,1.3,3,3v0C6,4.7,4.7,6,3,6z"></path></g>
        <g transform="translate(432,864) scale(4.12)"><circle cx="3" cy="3" r="3"></circle></g>
        <g transform="translate(504,864) scale(4.12)"><path d="M3,6L3,6C1.3,6,0,4.7,0,3V0h6v3C6,4.7,4.7,6,3,6z"></path></g>
        <g transform="translate(648,864) scale(4.12)"><path d="M6,6H3C1.3,6,0,4.7,0,3V0l6,0V6z"></path></g>
        <g transform="translate(672,864) scale(4.12)"><path d="M3,6H0V0l3,0c1.7,0,3,1.3,3,3v0C6,4.7,4.7,6,3,6z"></path></g>
        <g transform="translate(744,864) scale(4.12)"><path d="M6,6H0V3c0-1.7,1.3-3,3-3h0c1.7,0,3,1.3,3,3V6z"></path></g>
        <g transform="translate(792,864) scale(4.12)"><rect width="6" height="6"></rect></g>
        <g transform="translate(912,864) scale(4.12)"><path d="M6,6H0V3c0-1.7,1.3-3,3-3h0c1.7,0,3,1.3,3,3V6z"></path></g>
        <g transform="translate(312,888) scale(4.12)"><path d="M6,6H0V3c0-1.7,1.3-3,3-3l3,0V6z"></path></g>
        <g transform="translate(336,888) scale(4.12)"><rect width="6" height="6"></rect></g>
        <g transform="translate(480,888) scale(4.12)"><path d="M6,6H0V3c0-1.7,1.3-3,3-3h0c1.7,0,3,1.3,3,3V6z"></path></g>
        <g transform="translate(528,888) scale(4.12)"><path d="M6,6H3C1.3,6,0,4.7,0,3v0c0-1.7,1.3-3,3-3h3C6,0,6,6,6,6z"></path></g>
        <g transform="translate(552,888) scale(4.12)"><rect width="6" height="6"></rect></g>
        <g transform="translate(576,888) scale(4.12)"><path d="M3,6H0V0l3,0c1.7,0,3,1.3,3,3v0C6,4.7,4.7,6,3,6z"></path></g>
        <g transform="translate(624,888) scale(4.12)"><path d="M6,6H0V3c0-1.7,1.3-3,3-3h0c1.7,0,3,1.3,3,3V6z"></path></g>
        <g transform="translate(696,888) scale(4.12)"><path d="M6,6H3C1.3,6,0,4.7,0,3v0c0-1.7,1.3-3,3-3h3C6,0,6,6,6,6z"></path></g>
        <g transform="translate(720,888) scale(4.12)"><rect width="6" height="6"></rect></g>
        <g transform="translate(744,888) scale(4.12)"><rect width="6" height="6"></rect></g>
        <g transform="translate(792,888) scale(4.12)"><path d="M3,6L3,6C1.3,6,0,4.7,0,3V0h6v3C6,4.7,4.7,6,3,6z"></path></g>
        <g transform="translate(912,888) scale(4.12)"><rect width="6" height="6"></rect></g>
        <g transform="translate(264,912) scale(4.12)"><path d="M6,6H3C1.3,6,0,4.7,0,3v0c0-1.7,1.3-3,3-3h3C6,0,6,6,6,6z"></path></g>
        <g transform="translate(288,912) scale(4.12)"><rect width="6" height="6"></rect></g>
        <g transform="translate(312,912) scale(4.12)"><rect width="6" height="6"></rect></g>
        <g transform="translate(336,912) scale(4.12)"><path d="M3,6H0V0l6,0v3C6,4.7,4.7,6,3,6z"></path></g>
        <g transform="translate(384,912) scale(4.12)"><path d="M6,6H3C1.3,6,0,4.7,0,3v0c0-1.7,1.3-3,3-3h3C6,0,6,6,6,6z"></path></g>
        <g transform="translate(408,912) scale(4.12)"><path d="M3,6H0V0l3,0c1.7,0,3,1.3,3,3v0C6,4.7,4.7,6,3,6z"></path></g>
        <g transform="translate(456,912) scale(4.12)"><path d="M6,6H3C1.3,6,0,4.7,0,3v0c0-1.7,1.3-3,3-3h3C6,0,6,6,6,6z"></path></g>
        <g transform="translate(480,912) scale(4.12)"><path d="M3,6H0V0l6,0v3C6,4.7,4.7,6,3,6z"></path></g>
        <g transform="translate(552,912) scale(4.12)"><path d="M3,6L3,6C1.3,6,0,4.7,0,3V0h6v3C6,4.7,4.7,6,3,6z"></path></g>
        <g transform="translate(624,912) scale(4.12)"><path d="M6,6H3C1.3,6,0,4.7,0,3V0l6,0V6z"></path></g>
        <g transform="translate(648,912) scale(4.12)"><rect width="6" height="6"></rect></g>
        <g transform="translate(672,912) scale(4.12)"><path d="M3,6H0V0l3,0c1.7,0,3,1.3,3,3v0C6,4.7,4.7,6,3,6z"></path></g>
        <g transform="translate(744,912) scale(4.12)"><path d="M3,6L3,6C1.3,6,0,4.7,0,3V0h6v3C6,4.7,4.7,6,3,6z"></path></g>
        <g transform="translate(840,912) scale(4.12)"><path d="M6,6H3C1.3,6,0,4.7,0,3v0c0-1.7,1.3-3,3-3h3C6,0,6,6,6,6z"></path></g>
        <g transform="translate(864,912) scale(4.12)"><rect width="6" height="6"></rect></g>
        <g transform="translate(888,912) scale(4.12)"><rect width="6" height="6"></rect></g>
        <g transform="translate(912,912) scale(4.12)"><path d="M3,6H0V0l6,0v3C6,4.7,4.7,6,3,6z"></path></g>
</g>
    <g><g transform="translate(48,48)" fill="#161616"><g transform="scale(12)"><path d="M0,0l0,7c0,3.9,3.1,7,7,7h7V7c0-3.9-3.1-7-7-7H0z M7,12L7,12c-2.8,0-5-2.2-5-5v0c0-2.8,2.2-5,5-5h0c2.8,0,5,2.2,5,5v0 C12,9.8,9.8,12,7,12z"></path></g></g>
        <g transform="translate(768,48)" fill="#161616"><g transform="scale(12) rotate(90 7 7)"><path d="M0,0l0,7c0,3.9,3.1,7,7,7h7V7c0-3.9-3.1-7-7-7H0z M7,12L7,12c-2.8,0-5-2.2-5-5v0c0-2.8,2.2-5,5-5h0c2.8,0,5,2.2,5,5v0 C12,9.8,9.8,12,7,12z"></path></g></g>
        <g transform="translate(48,768)" fill="#161616"><g transform="scale(12) rotate(-90 7 7)"><path d="M0,0l0,7c0,3.9,3.1,7,7,7h7V7c0-3.9-3.1-7-7-7H0z M7,12L7,12c-2.8,0-5-2.2-5-5v0c0-2.8,2.2-5,5-5h0c2.8,0,5,2.2,5,5v0 C12,9.8,9.8,12,7,12z"></path></g></g>
        <g transform="translate(96,96)" fill="#161616"><g transform="scale(12)"><rect width="6" height="6"></rect></g></g>
        <g transform="translate(816,96)" fill="#161616"><g transform="scale(12)"><rect width="6" height="6"></rect></g></g>
        <g transform="translate(96,816)" fill="#161616"><g transform="scale(12)"><rect width="6" height="6"></rect></g></g></g>
</svg>