<svg width="835" height="834" viewBox="0 0 835 834" fill="none" xmlns="http://www.w3.org/2000/svg">
<rect x="0.0174561" width="834" height="834" rx="200" fill="#EBEFE3"/>
<path fill-rule="evenodd" clip-rule="evenodd" d="M620.419 417.5C620.419 534.861 529.343 630 416.995 630C304.646 630 213.57 534.861 213.57 417.5C213.57 300.139 304.646 205 416.995 205C452.254 205 485.418 214.371 514.329 230.858C498.873 238.535 488.189 254.995 488.189 274.062C488.189 300.468 508.681 321.875 533.959 321.875C554.78 321.875 572.354 307.352 577.905 287.475C604.556 323.413 620.419 368.521 620.419 417.5ZM488.186 414.312C502.229 414.312 513.614 402.42 513.614 387.75C513.614 373.08 502.229 361.187 488.186 361.187C474.143 361.187 462.758 373.08 462.758 387.75C462.758 402.42 474.143 414.312 488.186 414.312Z" fill="#161616"/>
<path fill-rule="evenodd" clip-rule="evenodd" d="M671.076 419.094C670.462 336.569 634.198 262.983 577.701 214.567C582.112 214.411 609.158 217.824 719.096 298.641C812.636 367.404 829.018 402.559 831.53 415.358C831.766 416.561 831.927 417.82 831.997 419.094C831.997 419.094 831.997 419.094 831.997 419.094H671.076ZM671.076 419.094C670.462 501.619 634.198 575.205 577.701 623.62C582.113 623.776 609.161 620.361 719.096 539.546C812.636 470.784 829.018 435.628 831.53 422.829C831.766 421.626 831.927 420.368 831.997 419.094" fill="#2F3B1C"/>
<path fill-rule="evenodd" clip-rule="evenodd" d="M1.99995 419.094H2.01021C2.08084 417.82 2.24138 416.562 2.47758 415.358C4.9893 402.559 21.3712 367.404 114.912 298.641C224.844 217.828 251.893 214.411 256.306 214.567C199.809 262.983 163.545 336.569 162.931 419.094H162.921C163.535 501.619 199.799 575.205 256.296 623.62C251.884 623.776 224.836 620.361 114.901 539.547C21.3609 470.784 4.97903 435.628 2.46732 422.83C2.23112 421.626 2.0706 420.368 1.99995 419.094Z" fill="#2F3B1C"/>
</svg>
