<svg width="818" height="818" viewBox="0 0 818 818" fill="none" xmlns="http://www.w3.org/2000/svg">
<rect x="345" y="351" width="120" height="100" rx="43" fill="#2F3B1C"/>
<path d="M390.187 223.982C405.77 221.629 414.049 221.517 422.053 221.159C429.299 220.835 445.601 221.098 448.623 221.15C448.949 221.156 449.257 221.159 449.583 221.161C504.701 221.556 621.825 290.77 596.451 312.852C590.599 317.945 581.766 316.857 574.026 316.33C553.104 314.904 501.297 314.722 396.518 331.257C250.426 354.312 260.653 357.136 242.635 383.955C224.617 410.773 182.25 400.893 156.441 388.517C134.295 377.898 71.2659 385.503 53.8183 387.875C50.775 388.289 47.7225 388.534 44.6666 388.228C-11.4754 382.599 -16.8331 302.59 40.8169 291.603C40.9545 291.576 40.9364 291.581 41.0739 291.554C45.5075 290.687 374.709 226.318 390.187 223.982Z" fill="#2F3B1C"/>
<path d="M417.408 592.77C401.409 595.319 392.91 595.44 384.692 595.828C377.262 596.178 360.561 595.895 357.426 595.837C357.082 595.831 356.759 595.828 356.415 595.826C299.931 595.387 180.06 520.704 205.494 496.633C211.432 491.014 220.822 492.175 228.977 492.748C250.656 494.272 303.85 494.382 410.909 476.555C560.896 451.579 550.397 448.52 568.895 419.466C587.393 390.412 630.89 401.116 657.387 414.523C680.071 426 744.535 417.827 762.622 415.236C765.828 414.777 769.048 414.503 772.268 414.85C829.788 421.06 835.239 507.615 776.099 519.513C775.955 519.542 775.973 519.537 775.829 519.567C771.18 520.526 433.297 590.239 417.408 592.77Z" fill="#2F3B1C"/>
</svg>
